<svg width="122.88" height="122.14" xmlns="http://www.w3.org/2000/svg">

 <g>
  <title>background</title>
  <rect fill="none" id="canvas_background" height="514" width="514" y="-1" x="-1"/>
 </g>
 <g>
  <title>Layer 1</title>
  <g id="svg_1">
   <path fill="#BBBBBB" id="svg_2" d="m8.69,0l105.5,0c2.39,0 4.57,0.98 6.14,2.55c1.57,1.57 2.55,3.75 2.55,6.14l0,104.76c0,2.39 -0.98,4.57 -2.55,6.14c-1.57,1.57 -3.75,2.55 -6.14,2.55l-105.5,0c-2.39,0 -4.57,-0.98 -6.14,-2.55c-1.57,-1.57 -2.55,-3.75 -2.55,-6.14l0,-104.76c0,-2.39 0.98,-4.57 2.55,-6.14c1.57,-1.57 3.75,-2.55 6.14,-2.55l0,0zm-1.67,88.3l37.51,-33.89c1.43,-1.29 3.64,-1.18 4.93,0.25c0.03,0.03 0.05,0.06 0.08,0.09l0.01,-0.01l31.45,37.22l4.82,-29.59c0.31,-1.91 2.11,-3.2 4.02,-2.89c0.75,0.12 1.4,0.47 1.9,0.96l24.15,23.18l0,-74.93c0,-0.46 -0.19,-0.87 -0.49,-1.18c-0.3,-0.3 -0.72,-0.49 -1.18,-0.49l-105.53,0c-0.46,0 -0.87,0.19 -1.18,0.49c-0.3,0.3 -0.49,0.72 -0.49,1.18l0,79.61l0,0zm108.84,5.02l-24.22,-23.25l-4.95,30.41c-0.11,0.83 -0.52,1.63 -1.21,2.22c-1.48,1.25 -3.68,1.06 -4.93,-0.41l-34.03,-40.27l-39.5,35.7l0,15.73c0,0.46 0.19,0.87 0.49,1.18c0.31,0.31 0.72,0.49 1.18,0.49l105.5,0c0.46,0 0.87,-0.19 1.18,-0.49c0.3,-0.3 0.49,-0.72 0.49,-1.18l0,-20.13l0,0zm-23.26,-73.46c3.48,0 6.62,1.41 8.9,3.69c2.28,2.28 3.69,5.43 3.69,8.9s-1.41,6.62 -3.69,8.9c-2.28,2.28 -5.43,3.69 -8.9,3.69c-3.48,0 -6.62,-1.41 -8.9,-3.69c-2.28,-2.28 -3.69,-5.43 -3.69,-8.9s1.41,-6.62 3.69,-8.9c2.28,-2.28 5.42,-3.69 8.9,-3.69l0,0zm4.98,7.61c-1.27,-1.27 -3.03,-2.06 -4.98,-2.06c-1.94,0 -3.7,0.79 -4.98,2.06c-1.27,1.27 -2.06,3.03 -2.06,4.98c0,1.94 0.79,3.7 2.06,4.98c1.27,1.27 3.03,2.06 4.98,2.06c1.94,0 3.7,-0.79 4.98,-2.06c1.27,-1.27 2.06,-3.03 2.06,-4.98c0,-1.94 -0.79,-3.7 -2.06,-4.98l0,0z"/>
  </g>
 </g>
</svg>